<?xml version="1.0" encoding="UTF-8" standalone="no"?>
<!-- Created with Inkscape (http://www.inkscape.org/) -->

<svg
   xmlns:dc="http://purl.org/dc/elements/1.1/"
   xmlns:cc="http://creativecommons.org/ns#"
   xmlns:rdf="http://www.w3.org/1999/02/22-rdf-syntax-ns#"
   xmlns:svg="http://www.w3.org/2000/svg"
   xmlns="http://www.w3.org/2000/svg"
   xmlns:sodipodi="http://sodipodi.sourceforge.net/DTD/sodipodi-0.dtd"
   xmlns:inkscape="http://www.inkscape.org/namespaces/inkscape"
   width="210mm"
   height="297mm"
   viewBox="0 0 744.09448819 1052.3622047"
   id="svg2"
   version="1.1"
   inkscape:version="0.91 r13725"
   sodipodi:docname="drawing.svg">
  <defs
     id="defs4" />
  <sodipodi:namedview
     id="base"
     pagecolor="#ffffff"
     bordercolor="#666666"
     borderopacity="1.0"
     inkscape:pageopacity="0.0"
     inkscape:pageshadow="2"
     inkscape:zoom="0.66512232"
     inkscape:cx="351.95577"
     inkscape:cy="563.06792"
     inkscape:document-units="px"
     inkscape:current-layer="layer1"
     showgrid="false"
     inkscape:window-width="800"
     inkscape:window-height="841"
     inkscape:window-x="800"
     inkscape:window-y="27"
     inkscape:window-maximized="0" />
  <metadata
     id="metadata7">
    <rdf:RDF>
      <cc:Work
         rdf:about="">
        <dc:format>image/svg+xml</dc:format>
        <dc:type
           rdf:resource="http://purl.org/dc/dcmitype/StillImage" />
        <dc:title></dc:title>
      </cc:Work>
    </rdf:RDF>
  </metadata>
  <g
     inkscape:label="Layer 1"
     inkscape:groupmode="layer"
     id="layer1">
    <path
       style="fill:#3d197e;fill-opacity:1;fill-rule:evenodd;stroke:#000000;stroke-width:3.80723405px;stroke-linecap:butt;stroke-linejoin:miter;stroke-opacity:1"
       d="M 745.22203,448.82829 C 562.1276,462.92415 504.69267,594.7913 696.91636,734.83309 503.8307,601.52121 340.41116,670.908 315.21499,861.40926 337.816,644.72129 230.30608,538.70053 2.1649613,584.01883 216.96803,524.4277 273.41625,378.58548 57.086069,208.32988 271.27818,379.34241 443.7689,328.03957 535.71065,134.00186 468.38131,325.07898 556.99599,452.46653 745.22203,448.82829 Z"
       id="path3348-5"
       inkscape:connector-curvature="0"
       sodipodi:nodetypes="ccccccc"
       inkscape:export-xdpi="36.304371"
       inkscape:export-ydpi="36.304371" />
    <ellipse
       style="fill:#7278ff;fill-opacity:1;fill-rule:evenodd;stroke:#000000;stroke-width:3.80723405px;stroke-linecap:butt;stroke-linejoin:miter;stroke-opacity:1"
       id="path3344"
       ry="123.88309"
       rx="120.82634"
       cy="487.0668"
       cx="383.86636"
       inkscape:export-xdpi="36.304371"
       inkscape:export-ydpi="36.304371" />
    <path
       style="fill:none;fill-rule:evenodd;stroke:#000000;stroke-width:3.80723405px;stroke-linecap:butt;stroke-linejoin:miter;stroke-opacity:1"
       d="m 323.45316,503.22556 c 36.60573,54.90028 81.56379,65.70221 126.31846,-5.38623"
       id="path4192"
       inkscape:connector-curvature="0"
       sodipodi:nodetypes="cc"
       inkscape:export-xdpi="36.304371"
       inkscape:export-ydpi="36.304371" />
    <path
       style="fill:#ffffff;fill-opacity:1;stroke:#000000;stroke-width:2.09272742;stroke-opacity:1"
       id="path4217"
       sodipodi:type="arc"
       sodipodi:cx="357.22205"
       sodipodi:cy="467.85809"
       sodipodi:rx="20.564552"
       sodipodi:ry="19.775217"
       sodipodi:start="0"
       sodipodi:end="6.2351898"
       d="m 377.7866,467.85809 a 20.564552,19.775217 0 0 1 -20.31781,19.7738 20.564552,19.775217 0 0 1 -20.80538,-19.29928 20.564552,19.775217 0 0 1 19.81854,-20.23692 20.564552,19.775217 0 0 1 21.28097,18.81365"
       inkscape:transform-center-x="4.7134215"
       inkscape:transform-center-y="-0.26288791"
       sodipodi:open="true"
       inkscape:export-xdpi="36.304371"
       inkscape:export-ydpi="36.304371" />
    <path
       style="fill:#000000;fill-opacity:1"
       id="path4196-1"
       sodipodi:type="arc"
       sodipodi:cx="362.22522"
       sodipodi:cy="471.01157"
       sodipodi:rx="9.5097275"
       sodipodi:ry="8.6393394"
       sodipodi:start="0"
       sodipodi:end="6.1964424"
       d="m 371.73495,471.01157 a 9.5097275,8.6393394 0 0 1 -9.30352,8.6373 9.5097275,8.6393394 0 0 1 -9.70699,-8.26272 9.5097275,8.6393394 0 0 1 8.88254,-8.99565 9.5097275,8.6393394 0 0 1 10.09221,7.8726 l -9.47397,0.74847 z"
       inkscape:export-xdpi="36.304371"
       inkscape:export-ydpi="36.304371" />
    <path
       style="fill:#ffffff;fill-opacity:1;stroke:#000000;stroke-width:2.09272742;stroke-opacity:1"
       id="path4217-0"
       sodipodi:type="arc"
       sodipodi:cx="407.98972"
       sodipodi:cy="467.85831"
       sodipodi:rx="20.564552"
       sodipodi:ry="19.775217"
       sodipodi:start="0"
       sodipodi:end="6.2351898"
       d="m 428.55427,467.85831 a 20.564552,19.775217 0 0 1 -20.31781,19.77379 20.564552,19.775217 0 0 1 -20.80538,-19.29928 20.564552,19.775217 0 0 1 19.81854,-20.23692 20.564552,19.775217 0 0 1 21.28097,18.81365"
       inkscape:transform-center-x="4.7134062"
       inkscape:transform-center-y="-0.26279497"
       sodipodi:open="true"
       inkscape:export-xdpi="36.304371"
       inkscape:export-ydpi="36.304371" />
    <path
       style="fill:#000000;fill-opacity:1"
       id="path4196-1-7"
       sodipodi:type="arc"
       sodipodi:cx="408.56363"
       sodipodi:cy="471.01178"
       sodipodi:rx="9.5097275"
       sodipodi:ry="8.6393394"
       sodipodi:start="0"
       sodipodi:end="6.1964424"
       d="m 418.07336,471.01178 a 9.5097275,8.6393394 0 0 1 -9.30352,8.63731 9.5097275,8.6393394 0 0 1 -9.707,-8.26273 9.5097275,8.6393394 0 0 1 8.88255,-8.99564 9.5097275,8.6393394 0 0 1 10.09221,7.8726 l -9.47397,0.74846 z"
       inkscape:export-xdpi="36.304371"
       inkscape:export-ydpi="36.304371" />
  </g>
</svg>
